<?xml version="1.0" encoding="UTF-8"?>
<!-- Created with Inkscape (http://www.inkscape.org/) -->
<svg width="1e3" height="1e3" version="1.1" viewBox="0 0 264.58 264.58" xmlns="http://www.w3.org/2000/svg" xmlns:cc="http://creativecommons.org/ns#" xmlns:dc="http://purl.org/dc/elements/1.1/" xmlns:rdf="http://www.w3.org/1999/02/22-rdf-syntax-ns#">
 <metadata>
  <rdf:RDF>
   <cc:Work rdf:about="">
    <dc:format>image/svg+xml</dc:format>
    <dc:type rdf:resource="http://purl.org/dc/dcmitype/StillImage"/>
    <dc:title/>
   </cc:Work>
  </rdf:RDF>
 </metadata>
 <g transform="translate(0 -32.417)">
  <g transform="matrix(31.912 0 0 31.912 4933 -4850.2)">
   <path d="m-150.88 153.05s0.57036 1.4561-0.75565 2.3848c-1.326 0.9286-3.029 1.3998-2.6965 2.5375 0.33247 1.1378 0.46944 1.5968-0.0529 1.9602-0.52235 0.3635 0.15366 0.959 0.15366 0.959 0.74969-0.8531 0.36828-0.7639 0.96188-1.4573 0.59361-0.6934 0.0157-1.5126-0.31278-2.0824-0.32844-0.5698 2.3781-1.0807 3.1825-1.8851 0.80439-0.8044-0.48019-2.4167-0.48019-2.4167z" fill="#494949"/>
   <path d="m-146.29 157.54s-1.4561-0.5704-2.3848 0.7556c-0.92866 1.326-1.3998 3.029-2.5376 2.6965-1.1377-0.3324-1.5968-0.4694-1.9602 0.053s-0.95892-0.1536-0.95892-0.1536c0.85311-0.7497 0.76385-0.3683 1.4573-0.9619s1.5127-0.016 2.0824 0.3128c0.56976 0.3284 1.0807-2.3782 1.8851-3.1825 0.80439-0.8044 2.4167 0.4801 2.4167 0.4801z" fill="#f60"/>
  </g>
 </g>
</svg>
